<?xml version="1.0" encoding="UTF-8"?>
<svg xmlns="http://www.w3.org/2000/svg" xmlns:xlink="http://www.w3.org/1999/xlink" width="82pt" height="31pt" viewBox="0 0 82 31" version="1.1">
<defs>
<clipPath id="clip1">
  <path d="M 4.957031 7.398438 L 20.863281 7.398438 L 20.863281 23.4375 L 4.957031 23.4375 Z M 4.957031 7.398438 "/>
</clipPath>
</defs>
<g id="surface1">
<path style=" stroke:none;fill-rule:nonzero;fill:rgb(30.588235%,40%,97.254902%);fill-opacity:1;" d="M 24.675781 22.234375 L 24.675781 8.5 L 12.867188 1.632812 L 1.054688 8.5 L 1.054688 22.234375 L 12.867188 29.097656 Z M 24.675781 22.234375 "/>
<path style=" stroke:none;fill-rule:nonzero;fill:rgb(100%,100%,100%);fill-opacity:1;" d="M 15.476562 16.902344 C 14.023438 16.902344 13.289062 16.050781 13.289062 14.375 C 13.289062 12.8125 14.046875 10.648438 15.476562 10.648438 C 16.125 10.648438 16.714844 11.101562 17.117188 11.933594 C 17.460938 12.621094 17.664062 13.53125 17.664062 14.375 C 17.664062 16.050781 16.929688 16.902344 15.476562 16.902344 Z M 15.476562 11.109375 C 14.488281 11.109375 13.746094 12.832031 13.746094 14.375 C 13.746094 15.808594 14.277344 16.441406 15.476562 16.441406 C 16.671875 16.441406 17.203125 15.800781 17.203125 14.375 C 17.203125 12.824219 16.496094 11.109375 15.476562 11.109375 Z M 15.476562 11.109375 "/>
<path style=" stroke:none;fill-rule:nonzero;fill:rgb(100%,100%,100%);fill-opacity:1;" d="M 12.308594 14.507812 L 8.476562 14.507812 C 8.351562 14.507812 8.25 14.402344 8.25 14.277344 C 8.25 14.152344 8.351562 14.046875 8.476562 14.046875 L 12.308594 14.046875 C 12.429688 14.046875 12.535156 14.152344 12.535156 14.277344 C 12.535156 14.402344 12.429688 14.507812 12.308594 14.507812 Z M 12.308594 14.507812 "/>
<path style=" stroke:none;fill-rule:nonzero;fill:rgb(100%,100%,100%);fill-opacity:1;" d="M 10.90625 16.871094 L 9.804688 16.871094 C 8.894531 16.871094 8.15625 16.066406 8.15625 15.070312 L 8.15625 10.863281 C 8.15625 10.738281 8.261719 10.632812 8.386719 10.632812 C 8.511719 10.632812 8.613281 10.738281 8.613281 10.863281 L 8.613281 15.070312 C 8.613281 15.808594 9.152344 16.410156 9.804688 16.410156 L 10.90625 16.410156 C 11.566406 16.410156 12.097656 15.808594 12.097656 15.070312 L 12.097656 10.863281 C 12.097656 10.738281 12.203125 10.632812 12.328125 10.632812 C 12.449219 10.632812 12.554688 10.738281 12.554688 10.863281 L 12.554688 15.070312 C 12.5625 16.066406 11.824219 16.871094 10.90625 16.871094 Z M 10.90625 16.871094 "/>
<path style=" stroke:none;fill-rule:nonzero;fill:rgb(100%,100%,100%);fill-opacity:1;" d="M 10.675781 18.8125 C 10.550781 18.8125 10.449219 18.707031 10.449219 18.578125 L 10.449219 16.765625 C 10.449219 16.640625 10.550781 16.535156 10.675781 16.535156 C 10.800781 16.535156 10.90625 16.640625 10.90625 16.765625 L 10.90625 18.578125 C 10.90625 18.707031 10.800781 18.8125 10.675781 18.8125 Z M 10.675781 18.8125 "/>
<path style=" stroke:none;fill-rule:nonzero;fill:rgb(100%,100%,100%);fill-opacity:1;" d="M 10.015625 18.8125 C 9.890625 18.8125 9.785156 18.707031 9.785156 18.578125 L 9.785156 16.765625 C 9.785156 16.640625 9.890625 16.535156 10.015625 16.535156 C 10.140625 16.535156 10.246094 16.640625 10.246094 16.765625 L 10.246094 18.578125 C 10.246094 18.707031 10.148438 18.8125 10.015625 18.8125 Z M 10.015625 18.8125 "/>
<path style=" stroke:none;fill-rule:nonzero;fill:rgb(100%,100%,100%);fill-opacity:1;" d="M 11.042969 14.316406 C 10.917969 14.316406 10.8125 14.210938 10.8125 14.085938 L 10.8125 10.882812 C 10.8125 10.757812 10.917969 10.652344 11.042969 10.652344 C 11.167969 10.652344 11.273438 10.757812 11.273438 10.882812 L 11.273438 14.085938 C 11.273438 14.210938 11.175781 14.316406 11.042969 14.316406 Z M 11.042969 14.316406 "/>
<path style=" stroke:none;fill-rule:nonzero;fill:rgb(100%,100%,100%);fill-opacity:1;" d="M 9.667969 14.316406 C 9.542969 14.316406 9.441406 14.210938 9.441406 14.085938 L 9.441406 10.882812 C 9.441406 10.757812 9.542969 10.652344 9.667969 10.652344 C 9.792969 10.652344 9.898438 10.757812 9.898438 10.882812 L 9.898438 14.085938 C 9.898438 14.210938 9.792969 14.316406 9.667969 14.316406 Z M 9.667969 14.316406 "/>
<path style=" stroke:none;fill-rule:nonzero;fill:rgb(100%,100%,100%);fill-opacity:1;" d="M 11.035156 23.128906 C 10.914062 23.128906 10.8125 23.027344 10.808594 22.902344 L 10.703125 18.976562 L 9.988281 18.976562 L 9.898438 22.441406 C 9.890625 22.566406 9.785156 22.671875 9.664062 22.664062 C 9.539062 22.660156 9.433594 22.554688 9.441406 22.425781 L 9.539062 18.738281 C 9.542969 18.613281 9.644531 18.515625 9.765625 18.515625 L 10.925781 18.515625 C 11.050781 18.515625 11.148438 18.613281 11.15625 18.738281 L 11.265625 22.890625 C 11.273438 23.023438 11.175781 23.128906 11.035156 23.128906 C 11.042969 23.128906 11.042969 23.128906 11.035156 23.128906 Z M 11.035156 23.128906 "/>
<g clip-path="url(#clip1)" clip-rule="nonzero">
<path style=" stroke:none;fill-rule:nonzero;fill:rgb(100%,100%,100%);fill-opacity:1;" d="M 12.910156 23.4375 C 8.523438 23.4375 4.957031 19.839844 4.957031 15.417969 C 4.957031 10.996094 8.523438 7.398438 12.910156 7.398438 C 17.296875 7.398438 20.863281 10.996094 20.863281 15.417969 C 20.863281 19.839844 17.296875 23.4375 12.910156 23.4375 Z M 12.910156 7.863281 C 8.777344 7.863281 5.414062 11.253906 5.414062 15.417969 C 5.414062 19.582031 8.777344 22.976562 12.910156 22.976562 C 17.039062 22.976562 20.40625 19.582031 20.40625 15.417969 C 20.40625 11.253906 17.039062 7.863281 12.910156 7.863281 Z M 12.910156 7.863281 "/>
</g>
<path style=" stroke:none;fill-rule:nonzero;fill:rgb(100%,100%,100%);fill-opacity:1;" d="M 15.804688 18.8125 C 15.679688 18.8125 15.574219 18.707031 15.574219 18.578125 L 15.574219 16.765625 C 15.574219 16.640625 15.679688 16.535156 15.804688 16.535156 C 15.925781 16.535156 16.03125 16.640625 16.03125 16.765625 L 16.03125 18.578125 C 16.03125 18.707031 15.925781 18.8125 15.804688 18.8125 Z M 15.804688 18.8125 "/>
<path style=" stroke:none;fill-rule:nonzero;fill:rgb(100%,100%,100%);fill-opacity:1;" d="M 15.140625 18.8125 C 15.015625 18.8125 14.914062 18.707031 14.914062 18.578125 L 14.914062 16.765625 C 14.914062 16.640625 15.015625 16.535156 15.140625 16.535156 C 15.265625 16.535156 15.371094 16.640625 15.371094 16.765625 L 15.371094 18.578125 C 15.371094 18.707031 15.273438 18.8125 15.140625 18.8125 Z M 15.140625 18.8125 "/>
<path style=" stroke:none;fill-rule:nonzero;fill:rgb(100%,100%,100%);fill-opacity:1;" d="M 14.78125 23.089844 C 14.78125 23.089844 14.773438 23.089844 14.78125 23.089844 C 14.652344 23.082031 14.546875 22.976562 14.550781 22.851562 L 14.664062 18.738281 C 14.671875 18.613281 14.769531 18.515625 14.894531 18.515625 L 16.050781 18.515625 C 16.175781 18.515625 16.273438 18.613281 16.28125 18.738281 L 16.378906 22.375 C 16.386719 22.5 16.28125 22.605469 16.15625 22.613281 C 16.15625 22.613281 16.148438 22.613281 16.148438 22.613281 C 16.027344 22.613281 15.925781 22.511719 15.921875 22.386719 L 15.828125 18.976562 L 15.117188 18.976562 L 15.011719 22.863281 C 15.003906 22.988281 14.90625 23.089844 14.78125 23.089844 Z M 14.78125 23.089844 "/>
<path style=" stroke:none;fill-rule:nonzero;fill:rgb(30.588235%,40%,97.254902%);fill-opacity:1;" d="M 28.75 17.15625 L 29.765625 17.15625 C 30.488281 17.15625 31.046875 16.945312 31.441406 16.527344 C 31.835938 16.113281 32.03125 15.539062 32.03125 14.8125 C 32.03125 14.085938 31.835938 13.515625 31.441406 13.101562 C 31.046875 12.6875 30.488281 12.480469 29.765625 12.480469 L 28.75 12.480469 Z M 29.765625 11.648438 C 30.773438 11.648438 31.574219 11.933594 32.179688 12.503906 C 32.78125 13.074219 33.082031 13.84375 33.082031 14.8125 C 33.082031 15.78125 32.78125 16.546875 32.179688 17.105469 C 31.574219 17.664062 30.773438 17.941406 29.765625 17.941406 L 27.726562 17.941406 L 27.726562 11.648438 Z M 29.765625 11.648438 "/>
<path style=" stroke:none;fill-rule:nonzero;fill:rgb(30.588235%,40%,97.254902%);fill-opacity:1;" d="M 35.265625 11.628906 C 35.265625 11.816406 35.199219 11.972656 35.074219 12.101562 C 34.949219 12.226562 34.792969 12.289062 34.613281 12.289062 C 34.429688 12.289062 34.273438 12.226562 34.148438 12.101562 C 34.023438 11.972656 33.960938 11.816406 33.960938 11.628906 C 33.960938 11.441406 34.023438 11.285156 34.148438 11.160156 C 34.273438 11.03125 34.429688 10.96875 34.613281 10.96875 C 34.792969 10.96875 34.949219 11.03125 35.074219 11.160156 C 35.199219 11.285156 35.265625 11.441406 35.265625 11.628906 Z M 34.097656 17.941406 L 34.097656 12.953125 L 35.121094 12.953125 L 35.121094 17.941406 Z M 34.097656 17.941406 "/>
<path style=" stroke:none;fill-rule:nonzero;fill:rgb(30.588235%,40%,97.254902%);fill-opacity:1;" d="M 37.492188 12.953125 L 37.492188 13.738281 C 37.820312 13.160156 38.347656 12.871094 39.074219 12.871094 C 39.628906 12.871094 40.089844 13.058594 40.453125 13.433594 C 40.816406 13.804688 40.996094 14.328125 40.996094 14.996094 L 40.996094 17.941406 L 39.980469 17.941406 L 39.980469 15.152344 C 39.980469 14.707031 39.867188 14.363281 39.648438 14.125 C 39.425781 13.886719 39.121094 13.765625 38.738281 13.765625 C 38.355469 13.765625 38.050781 13.886719 37.828125 14.125 C 37.601562 14.363281 37.492188 14.707031 37.492188 15.152344 L 37.492188 17.941406 L 36.46875 17.941406 L 36.46875 12.953125 Z M 37.492188 12.953125 "/>
<path style=" stroke:none;fill-rule:nonzero;fill:rgb(30.588235%,40%,97.254902%);fill-opacity:1;" d="M 44.382812 18.023438 C 43.664062 18.023438 43.078125 17.789062 42.628906 17.316406 C 42.179688 16.84375 41.957031 16.222656 41.957031 15.441406 C 41.957031 14.664062 42.183594 14.039062 42.636719 13.570312 C 43.09375 13.105469 43.683594 12.871094 44.40625 12.871094 C 45.125 12.871094 45.710938 13.09375 46.160156 13.542969 C 46.609375 13.996094 46.835938 14.582031 46.835938 15.308594 C 46.835938 15.480469 46.824219 15.644531 46.796875 15.796875 L 43.007812 15.796875 C 43.03125 16.210938 43.171875 16.542969 43.421875 16.785156 C 43.679688 17.03125 44 17.15625 44.382812 17.15625 C 44.941406 17.15625 45.332031 16.921875 45.558594 16.457031 L 46.664062 16.457031 C 46.515625 16.917969 46.242188 17.292969 45.847656 17.585938 C 45.453125 17.875 44.964844 18.023438 44.382812 18.023438 Z M 45.765625 15.089844 C 45.761719 14.679688 45.625 14.351562 45.359375 14.105469 C 45.097656 13.863281 44.777344 13.738281 44.398438 13.738281 C 44.023438 13.738281 43.707031 13.863281 43.453125 14.105469 C 43.199219 14.351562 43.050781 14.679688 43.015625 15.089844 Z M 45.765625 15.089844 "/>
<path style=" stroke:none;fill-rule:nonzero;fill:rgb(30.588235%,40%,97.254902%);fill-opacity:1;" d="M 52.476562 12.40625 C 52.167969 12.40625 51.921875 12.484375 51.730469 12.644531 C 51.539062 12.800781 51.445312 13.027344 51.445312 13.328125 C 51.445312 13.625 51.558594 13.855469 51.785156 14.011719 C 52.011719 14.167969 52.289062 14.285156 52.613281 14.355469 C 52.933594 14.429688 53.257812 14.511719 53.582031 14.605469 C 53.90625 14.699219 54.179688 14.871094 54.40625 15.125 C 54.632812 15.378906 54.75 15.738281 54.75 16.203125 C 54.75 16.667969 54.554688 17.085938 54.164062 17.453125 C 53.773438 17.820312 53.253906 18.003906 52.601562 18.003906 C 51.949219 18.003906 51.417969 17.851562 51.011719 17.542969 C 50.605469 17.234375 50.402344 16.808594 50.402344 16.265625 L 51.496094 16.265625 C 51.519531 16.542969 51.621094 16.765625 51.800781 16.929688 C 51.984375 17.089844 52.246094 17.171875 52.59375 17.171875 C 52.941406 17.171875 53.214844 17.082031 53.414062 16.902344 C 53.617188 16.71875 53.71875 16.503906 53.71875 16.257812 C 53.71875 16.011719 53.65625 15.816406 53.53125 15.675781 C 53.410156 15.539062 53.25 15.433594 53.054688 15.367188 C 52.863281 15.296875 52.648438 15.234375 52.414062 15.179688 C 52.179688 15.125 51.945312 15.0625 51.707031 14.992188 C 51.472656 14.917969 51.253906 14.824219 51.0625 14.707031 C 50.867188 14.59375 50.707031 14.425781 50.585938 14.207031 C 50.460938 13.984375 50.402344 13.714844 50.402344 13.394531 C 50.402344 12.847656 50.597656 12.402344 50.988281 12.070312 C 51.378906 11.734375 51.890625 11.566406 52.515625 11.566406 C 53.144531 11.566406 53.644531 11.710938 54.015625 12 C 54.390625 12.289062 54.597656 12.710938 54.640625 13.257812 L 53.511719 13.257812 C 53.484375 13.015625 53.382812 12.816406 53.203125 12.652344 C 53.023438 12.488281 52.78125 12.40625 52.476562 12.40625 Z M 52.476562 12.40625 "/>
<path style=" stroke:none;fill-rule:nonzero;fill:rgb(30.588235%,40%,97.254902%);fill-opacity:1;" d="M 59.226562 16.671875 C 59.523438 16.367188 59.671875 15.957031 59.671875 15.445312 C 59.671875 14.929688 59.523438 14.523438 59.226562 14.21875 C 58.929688 13.917969 58.578125 13.765625 58.171875 13.765625 C 57.765625 13.765625 57.414062 13.914062 57.117188 14.210938 C 56.820312 14.507812 56.671875 14.910156 56.671875 15.421875 C 56.671875 15.9375 56.820312 16.347656 57.117188 16.660156 C 57.414062 16.96875 57.765625 17.125 58.171875 17.125 C 58.578125 17.125 58.929688 16.972656 59.226562 16.671875 Z M 57.957031 18.023438 C 57.296875 18.023438 56.742188 17.78125 56.292969 17.292969 C 55.84375 16.808594 55.621094 16.1875 55.621094 15.429688 C 55.621094 14.671875 55.84375 14.054688 56.289062 13.582031 C 56.734375 13.105469 57.292969 12.871094 57.957031 12.871094 C 58.34375 12.871094 58.6875 12.957031 58.984375 13.136719 C 59.28125 13.316406 59.511719 13.546875 59.671875 13.839844 L 59.671875 12.953125 L 60.707031 12.953125 L 60.707031 17.941406 L 59.671875 17.941406 L 59.671875 17.007812 C 59.503906 17.316406 59.273438 17.5625 58.980469 17.746094 C 58.6875 17.929688 58.34375 18.023438 57.957031 18.023438 Z M 57.957031 18.023438 "/>
<path style=" stroke:none;fill-rule:nonzero;fill:rgb(30.588235%,40%,97.254902%);fill-opacity:1;" d="M 64.128906 12.953125 L 64.128906 13.792969 L 63.210938 13.792969 L 63.210938 17.941406 L 62.175781 17.941406 L 62.175781 13.792969 L 61.59375 13.792969 L 61.59375 12.953125 L 62.175781 12.953125 L 62.175781 12.597656 C 62.175781 12.023438 62.328125 11.605469 62.632812 11.34375 C 62.933594 11.082031 63.410156 10.949219 64.058594 10.949219 L 64.058594 11.8125 C 63.746094 11.8125 63.527344 11.871094 63.402344 11.988281 C 63.273438 12.105469 63.210938 12.308594 63.210938 12.597656 L 63.210938 12.953125 Z M 64.128906 12.953125 "/>
<path style=" stroke:none;fill-rule:nonzero;fill:rgb(30.588235%,40%,97.254902%);fill-opacity:1;" d="M 67.121094 18.023438 C 66.398438 18.023438 65.816406 17.789062 65.367188 17.316406 C 64.917969 16.84375 64.691406 16.222656 64.691406 15.441406 C 64.691406 14.664062 64.921875 14.039062 65.375 13.570312 C 65.832031 13.105469 66.417969 12.871094 67.140625 12.871094 C 67.863281 12.871094 68.449219 13.09375 68.898438 13.542969 C 69.347656 13.996094 69.574219 14.582031 69.574219 15.308594 C 69.574219 15.480469 69.558594 15.644531 69.535156 15.796875 L 65.746094 15.796875 C 65.769531 16.210938 65.90625 16.542969 66.160156 16.785156 C 66.414062 17.03125 66.734375 17.15625 67.121094 17.15625 C 67.675781 17.15625 68.070312 16.921875 68.296875 16.457031 L 69.402344 16.457031 C 69.25 16.917969 68.980469 17.292969 68.582031 17.585938 C 68.1875 17.875 67.699219 18.023438 67.121094 18.023438 Z M 68.503906 15.089844 C 68.496094 14.679688 68.363281 14.351562 68.097656 14.105469 C 67.835938 13.863281 67.515625 13.738281 67.136719 13.738281 C 66.761719 13.738281 66.445312 13.863281 66.191406 14.105469 C 65.933594 14.351562 65.789062 14.679688 65.753906 15.089844 Z M 68.503906 15.089844 "/>
<path style=" stroke:none;fill-rule:nonzero;fill:rgb(30.588235%,40%,97.254902%);fill-opacity:1;" d="M 71.394531 17.765625 C 71.277344 17.882812 71.128906 17.941406 70.953125 17.941406 C 70.78125 17.941406 70.636719 17.882812 70.519531 17.761719 C 70.402344 17.640625 70.34375 17.492188 70.34375 17.320312 C 70.34375 17.148438 70.402344 17.003906 70.519531 16.882812 C 70.636719 16.761719 70.78125 16.703125 70.953125 16.703125 C 71.128906 16.703125 71.277344 16.761719 71.394531 16.882812 C 71.515625 17.003906 71.574219 17.148438 71.574219 17.324219 C 71.574219 17.5 71.515625 17.648438 71.394531 17.765625 Z M 71.394531 17.765625 "/>
<path style=" stroke:none;fill-rule:nonzero;fill:rgb(30.588235%,40%,97.254902%);fill-opacity:1;" d="M 72.6875 17.941406 L 72.6875 11.238281 L 73.710938 11.238281 L 73.710938 17.941406 Z M 72.6875 17.941406 "/>
<path style=" stroke:none;fill-rule:nonzero;fill:rgb(30.588235%,40%,97.254902%);fill-opacity:1;" d="M 76.425781 17.859375 L 74.476562 12.953125 L 75.617188 12.953125 L 77.007812 16.753906 L 78.457031 12.953125 L 79.515625 12.953125 L 76.480469 20.289062 L 75.417969 20.289062 Z M 76.425781 17.859375 "/>
</g>
</svg>
